<?xml version="1.0" standalone="no"?>
<!DOCTYPE svg PUBLIC "-//W3C//DTD SVG 20010904//EN"
 "http://www.w3.org/TR/2001/REC-SVG-20010904/DTD/svg10.dtd">
<svg version="1.0" xmlns="http://www.w3.org/2000/svg"
 width="512.000000pt" height="199.000000pt" viewBox="0 0 512.000000 199.000000"
 preserveAspectRatio="xMidYMid meet">

<g transform="translate(0.000000,199.000000) scale(0.100000,-0.100000)"
fill="#000000" stroke="none">
<path d="M1200 1780 l0 -70 255 0 255 0 0 -235 0 -235 70 0 70 0 0 305 0 305
-325 0 -325 0 0 -70z"/>
<path d="M1000 1458 l0 -213 -153 153 -152 152 -48 -48 -47 -47 145 -145 c80
-80 145 -148 145 -152 0 -5 -97 -8 -215 -8 l-215 0 0 -70 0 -70 217 0 218 0
-155 -155 -155 -155 53 -53 53 -52 154 157 155 156 0 -209 0 -209 70 0 70 0 0
212 0 213 150 -150 150 -150 47 48 48 47 -143 143 c-78 78 -142 146 -142 150
0 4 97 7 215 7 l215 0 0 70 0 70 -215 0 c-118 0 -215 3 -215 8 0 4 68 73 152
154 l153 147 -52 53 -53 53 -155 -155 -155 -155 0 208 0 207 -70 0 -70 0 0
-212z"/>
<path d="M4522 1254 c-26 -18 -30 -65 -6 -88 8 -9 30 -16 48 -16 59 0 87 59
46 100 -24 24 -57 26 -88 4z"/>
<path d="M2174 1229 c-63 -15 -144 -69 -185 -123 -95 -126 -82 -302 31 -413
71 -69 119 -88 230 -88 84 0 101 3 146 27 88 46 147 139 160 251 l7 57 -162 0
-161 0 0 -45 0 -45 101 0 c88 0 100 -2 95 -16 -3 -9 -6 -20 -6 -24 0 -22 -65
-80 -106 -96 -62 -24 -145 -14 -198 23 -56 38 -89 108 -89 182 1 70 13 99 58
150 42 46 87 64 162 63 64 0 132 -36 160 -82 16 -27 22 -30 70 -30 64 0 68 13
24 81 -62 98 -216 157 -337 128z"/>
<path d="M4079 1173 c-48 -112 -229 -553 -229 -558 0 -3 25 -5 55 -5 l56 0 26
60 26 60 141 0 141 0 23 -60 24 -60 59 0 59 0 -15 38 c-9 20 -66 157 -127 305
l-111 267 -54 0 -54 0 -20 -47z m130 -237 c23 -55 41 -103 41 -108 0 -4 -45
-8 -100 -8 -55 0 -100 2 -100 4 0 2 19 48 41 102 23 55 46 110 51 124 10 24
10 24 18 5 5 -11 27 -65 49 -119z"/>
<path d="M2781 1079 c-139 -41 -213 -207 -153 -341 23 -52 86 -111 137 -128
62 -20 159 -8 209 27 38 27 86 85 86 104 0 5 -26 9 -58 9 -46 0 -60 -4 -69
-20 -7 -10 -31 -24 -53 -30 -69 -19 -133 15 -159 82 l-10 28 182 2 182 3 -2
43 c-6 125 -86 212 -208 225 -27 3 -65 1 -84 -4z m129 -104 c16 -9 37 -29 45
-45 l16 -30 -126 0 c-69 0 -125 3 -125 6 0 17 25 47 53 64 38 24 97 26 137 5z"/>
<path d="M3346 1076 c-21 -8 -51 -27 -67 -42 l-29 -28 0 32 c0 32 0 32 -50 32
l-50 0 0 -230 0 -230 49 0 48 0 5 145 c6 159 12 180 71 215 38 24 68 25 107 5
48 -25 54 -47 58 -212 l4 -153 49 0 49 0 0 163 c-1 168 -10 218 -47 259 -43
47 -132 67 -197 44z"/>
<path d="M4510 840 l0 -230 55 0 55 0 0 230 0 230 -55 0 -55 0 0 -230z"/>
</g>
</svg>
