<?xml version="1.0" standalone="no"?>
<!DOCTYPE svg PUBLIC "-//W3C//DTD SVG 20010904//EN"
 "http://www.w3.org/TR/2001/REC-SVG-20010904/DTD/svg10.dtd">
<svg version="1.0" xmlns="http://www.w3.org/2000/svg"
 width="248.000000pt" height="193.000000pt" viewBox="0 0 248.000000 193.000000"
 preserveAspectRatio="xMidYMid meet">

<g transform="translate(0.000000,193.000000) scale(0.100000,-0.100000)"
fill="#000000" stroke="none">
<path d="M1200 1765 l0 -65 255 0 255 0 2 -237 3 -238 68 -3 67 -3 0 306 0
305 -325 0 -325 0 0 -65z"/>
<path d="M1000 1438 l0 -213 -153 153 -153 152 -42 -43 c-23 -23 -42 -47 -42
-53 0 -5 63 -72 140 -149 77 -77 140 -143 140 -147 0 -5 -97 -8 -215 -8 l-215
0 0 -70 0 -70 210 0 c116 0 210 -3 210 -7 0 -4 -66 -74 -147 -155 l-148 -148
51 -51 51 -51 156 158 156 159 1 -212 0 -213 70 0 70 0 0 212 0 213 150 -150
150 -150 47 48 48 47 -143 143 c-78 78 -142 146 -142 150 0 4 97 7 215 7 l215
0 0 70 0 70 -209 0 c-116 0 -212 4 -215 9 -3 5 62 75 146 156 l152 146 -52 52
-52 52 -155 -155 -155 -155 0 208 0 207 -70 0 -70 0 0 -212z"/>
</g>
</svg>
